# xmcd
#
# Track frame offsets:
#	150
#	13865
#	26130
#	39742
#	53707
#	66290
#	79657
#	92857
#	104497
#	117017
#	130542
#	143715
#	156397
#	169877
#	182445
#	195442
#	209087
#	221905
#	234975
#	249282
#	262652
#	275217
#	288895
#
# Disc length: 4035 seconds
# Revision: 1
# Processed by: cddbd v1.5.2PL0 Copyright (c) Steve Scherf et al.
# Submitted via: dBpowerAMP V12.0
#
DISCID=4e0fc117
DTITLE=Blind Lemon Jefferson - The Best Of
DYEAR=2006
DGENRE=Blues
TTITLE0=Match Box Blues
TTITLE1=That Crawlin' Baby Blues
TTITLE2=Hot Dogs
TTITLE3=Corrina Blues
TTITLE4=Rambler Blues
TTITLE5=Rabbit Foot Blues
TTITLE6=Dry Southern Blues
TTITLE7='Lectric Chair Blues
TTITLE8=One Dime Blues
TTITLE9=Got The Blues
TTITLE10=See That My Grave's Kept Clean
TTITLE11=He Arose From The Dead
TTITLE12=Black Horse Blues
TTITLE13=Prison Cell Blues
TTITLE14=Booster Blues
TTITLE15=Bed Spring Blues
TTITLE16=Jack O' Diamond Blues
TTITLE17=Beggin Back
TTITLE18=Wartime Blues
TTITLE19=Easy Rider Blues
TTITLE20=How Long How Long
TTITLE21=Long Lonesome Blues
TTITLE22=I Want To Be Like Jesus In My Heart
EXTD=
EXTT0=
EXTT1=
EXTT2=
EXTT3=
EXTT4=
EXTT5=
EXTT6=
EXTT7=
EXTT8=
EXTT9=
EXTT10=
EXTT11=
EXTT12=
EXTT13=
EXTT14=
EXTT15=
EXTT16=
EXTT17=
EXTT18=
EXTT19=
EXTT20=
EXTT21=
EXTT22=
PLAYORDER=
